event: #time
data: [70.75425,64]

event: #time
data: [141.5085,128]

event: note
data: {"midi":67,"velocity":0.8031496062992126,"noteOffVelocity":0,"ticks":128,"durationTicks":116,"trackId":2,"instrument":"clarinet"}

event: note
data: {"midi":67,"velocity":0.7874015748031497,"noteOffVelocity":0,"ticks":128,"durationTicks":116,"trackId":7,"instrument":"string_ensemble_1"}

event: note
data: {"midi":67,"velocity":0.7952755905511811,"noteOffVelocity":0,"ticks":128,"durationTicks":116,"trackId":8,"instrument":"string_ensemble_1"}

event: note
data: {"midi":55,"velocity":0.7874015748031497,"noteOffVelocity":0,"ticks":128,"durationTicks":116,"trackId":9,"instrument":"string_ensemble_1"}

event: note
data: {"midi":43,"velocity":0.8188976377952756,"noteOffVelocity":0,"ticks":128,"durationTicks":116,"trackId":11,"instrument":"string_ensemble_1"}

event: note
data: {"midi":43,"velocity":0.7795275590551181,"noteOffVelocity":0,"ticks":128,"durationTicks":116,"trackId":13,"instrument":"string_ensemble_1"}

event: #time
data: [212.26274999999998,192]

event: #time
data: [283.017,256]

event: note
data: {"midi":67,"velocity":0.84251968503937,"noteOffVelocity":0,"ticks":256,"durationTicks":116,"trackId":2,"instrument":"clarinet"}

event: note
data: {"midi":67,"velocity":0.8582677165354331,"noteOffVelocity":0,"ticks":256,"durationTicks":116,"trackId":7,"instrument":"string_ensemble_1"}

event: note
data: {"midi":67,"velocity":0.8346456692913385,"noteOffVelocity":0,"ticks":256,"durationTicks":116,"trackId":8,"instrument":"string_ensemble_1"}

event: note
data: {"midi":55,"velocity":0.8976377952755905,"noteOffVelocity":0,"ticks":256,"durationTicks":116,"trackId":9,"instrument":"string_ensemble_1"}

event: note
data: {"midi":43,"velocity":0.8582677165354331,"noteOffVelocity":0,"ticks":256,"durationTicks":116,"trackId":11,"instrument":"string_ensemble_1"}

event: note
data: {"midi":43,"velocity":0.8976377952755905,"noteOffVelocity":0,"ticks":256,"durationTicks":116,"trackId":13,"instrument":"string_ensemble_1"}

event: #time
data: [353.77125,320]

event: #time
data: [424.5255,384]

event: note
data: {"midi":67,"velocity":0.8976377952755905,"noteOffVelocity":0,"ticks":384,"durationTicks":116,"trackId":2,"instrument":"clarinet"}

event: note
data: {"midi":67,"velocity":0.9133858267716536,"noteOffVelocity":0,"ticks":384,"durationTicks":116,"trackId":7,"instrument":"string_ensemble_1"}

event: note
data: {"midi":67,"velocity":0.9133858267716536,"noteOffVelocity":0,"ticks":384,"durationTicks":116,"trackId":8,"instrument":"string_ensemble_1"}

event: note
data: {"midi":55,"velocity":0.8818897637795275,"noteOffVelocity":0,"ticks":384,"durationTicks":116,"trackId":9,"instrument":"string_ensemble_1"}

event: note
data: {"midi":43,"velocity":0.889763779527559,"noteOffVelocity":0,"ticks":384,"durationTicks":116,"trackId":11,"instrument":"string_ensemble_1"}

event: note
data: {"midi":43,"velocity":0.889763779527559,"noteOffVelocity":0,"ticks":384,"durationTicks":116,"trackId":13,"instrument":"string_ensemble_1"}

event: #time
data: [495.27975000000004,448]

event: #time
data: [566.034,512]

event: #tempo
data: {"bpm":60,"ticksPerbeat":256,"beatLengthMs":1000}

event: note
data: {"midi":63,"velocity":0.7795275590551181,"noteOffVelocity":0,"ticks":512,"durationTicks":768,"trackId":2,"instrument":"clarinet"}

event: note
data: {"midi":63,"velocity":0.8188976377952756,"noteOffVelocity":0,"ticks":512,"durationTicks":768,"trackId":7,"instrument":"string_ensemble_1"}

event: note
data: {"midi":63,"velocity":0.7952755905511811,"noteOffVelocity":0,"ticks":512,"durationTicks":768,"trackId":8,"instrument":"string_ensemble_1"}

event: note
data: {"midi":51,"velocity":0.84251968503937,"noteOffVelocity":0,"ticks":512,"durationTicks":768,"trackId":9,"instrument":"string_ensemble_1"}

event: note
data: {"midi":39,"velocity":0.8582677165354331,"noteOffVelocity":0,"ticks":512,"durationTicks":768,"trackId":11,"instrument":"string_ensemble_1"}

event: note
data: {"midi":39,"velocity":0.8582677165354331,"noteOffVelocity":0,"ticks":512,"durationTicks":768,"trackId":13,"instrument":"string_ensemble_1"}

event: #time
data: [816.034,576]

event: #time
data: [1066.034,640]

event: #time
data: [1316.034,704]

event: #tempo
data: {"bpm":216.0013824088474,"ticksPerbeat":256,"beatLengthMs":277.776}

event: #time
data: [1385.478,768]

event: #time
data: [1454.922,832]

event: note
data: {"midi":65,"velocity":0.8031496062992126,"noteOffVelocity":0,"ticks":1408,"durationTicks":116,"trackId":2,"instrument":"clarinet"}

event: note
data: {"midi":65,"velocity":0.7952755905511811,"noteOffVelocity":0,"ticks":1408,"durationTicks":116,"trackId":7,"instrument":"string_ensemble_1"}

event: note
data: {"midi":65,"velocity":0.8110236220472441,"noteOffVelocity":0,"ticks":1408,"durationTicks":116,"trackId":8,"instrument":"string_ensemble_1"}

event: note
data: {"midi":53,"velocity":0.7874015748031497,"noteOffVelocity":0,"ticks":1408,"durationTicks":116,"trackId":9,"instrument":"string_ensemble_1"}

event: note
data: {"midi":41,"velocity":0.7795275590551181,"noteOffVelocity":0,"ticks":1408,"durationTicks":116,"trackId":11,"instrument":"string_ensemble_1"}

event: note
data: {"midi":41,"velocity":0.7716535433070866,"noteOffVelocity":0,"ticks":1408,"durationTicks":116,"trackId":13,"instrument":"string_ensemble_1"}

event: #time
data: [1524.366,896]

event: #time
data: [1593.81,960]

event: note
data: {"midi":65,"velocity":0.937007874015748,"noteOffVelocity":0,"ticks":1536,"durationTicks":116,"trackId":2,"instrument":"clarinet"}

event: note
data: {"midi":65,"velocity":0.8346456692913385,"noteOffVelocity":0,"ticks":1536,"durationTicks":116,"trackId":7,"instrument":"string_ensemble_1"}

event: note
data: {"midi":65,"velocity":0.8818897637795275,"noteOffVelocity":0,"ticks":1536,"durationTicks":116,"trackId":8,"instrument":"string_ensemble_1"}

event: note
data: {"midi":53,"velocity":0.8740157480314961,"noteOffVelocity":0,"ticks":1536,"durationTicks":116,"trackId":9,"instrument":"string_ensemble_1"}

event: note
data: {"midi":41,"velocity":0.8740157480314961,"noteOffVelocity":0,"ticks":1536,"durationTicks":116,"trackId":11,"instrument":"string_ensemble_1"}

event: note
data: {"midi":41,"velocity":0.9133858267716536,"noteOffVelocity":0,"ticks":1536,"durationTicks":116,"trackId":13,"instrument":"string_ensemble_1"}

event: #time
data: [1663.254,1024]

event: #time
data: [1732.6979999999999,1088]

event: note
data: {"midi":65,"velocity":0.8818897637795275,"noteOffVelocity":0,"ticks":1664,"durationTicks":116,"trackId":2,"instrument":"clarinet"}

event: note
data: {"midi":65,"velocity":0.8976377952755905,"noteOffVelocity":0,"ticks":1664,"durationTicks":116,"trackId":7,"instrument":"string_ensemble_1"}

event: note
data: {"midi":65,"velocity":0.8582677165354331,"noteOffVelocity":0,"ticks":1664,"durationTicks":116,"trackId":8,"instrument":"string_ensemble_1"}

event: note
data: {"midi":53,"velocity":0.937007874015748,"noteOffVelocity":0,"ticks":1664,"durationTicks":116,"trackId":9,"instrument":"string_ensemble_1"}

event: note
data: {"midi":41,"velocity":0.905511811023622,"noteOffVelocity":0,"ticks":1664,"durationTicks":116,"trackId":11,"instrument":"string_ensemble_1"}

event: note
data: {"midi":41,"velocity":0.8818897637795275,"noteOffVelocity":0,"ticks":1664,"durationTicks":116,"trackId":13,"instrument":"string_ensemble_1"}

event: #time
data: [1802.1419999999998,1152]

event: note
data: {"midi":62,"velocity":0.8110236220472441,"noteOffVelocity":0,"ticks":1792,"durationTicks":1280,"trackId":2,"instrument":"clarinet"}

event: note
data: {"midi":62,"velocity":0.7716535433070866,"noteOffVelocity":0,"ticks":1792,"durationTicks":1280,"trackId":7,"instrument":"string_ensemble_1"}

event: note
data: {"midi":62,"velocity":0.7795275590551181,"noteOffVelocity":0,"ticks":1792,"durationTicks":1280,"trackId":8,"instrument":"string_ensemble_1"}

event: note
data: {"midi":50,"velocity":0.8346456692913385,"noteOffVelocity":0,"ticks":1792,"durationTicks":1280,"trackId":9,"instrument":"string_ensemble_1"}

event: note
data: {"midi":38,"velocity":0.8582677165354331,"noteOffVelocity":0,"ticks":1792,"durationTicks":1280,"trackId":11,"instrument":"string_ensemble_1"}

event: note
data: {"midi":38,"velocity":0.84251968503937,"noteOffVelocity":0,"ticks":1792,"durationTicks":1280,"trackId":13,"instrument":"string_ensemble_1"}

event: #time
data: [1871.5859999999998,1216]

event: #time
data: [1941.0299999999997,1280]

event: #time
data: [2010.4739999999997,1344]

event: #time
data: [2079.9179999999997,1408]

