write(int, void*, int);
static char midi_test_c_scale[] = {
    0x4d, 0x54, 0x68, 0x64, 0x00, 0x00, 0x00, 0x06, /* 0x00    */
    0x00, 0x00, 0x00, 0x01, 0x00, 0x06, 0x4d, 0x54, /* 0x08    */
    0x72, 0x6b, 0x00, 0x00, 0x02, 0x63, 0x00, 0xb0, /* 0x10    */
    0x00, 0x00, 0x00, 0xC0, 0x00, 0x00, 0x90, 0x80, /* 0x18  C */
    0x64, 0x08, 0x80, 0x00, 0x00, 0x08, 0x90, 0x82, /* 0x20  D */
    0x64, 0x08, 0x80, 0x02, 0x00, 0x08, 0x90, 0x04, /* 0x28  E */
    0x64, 0x08, 0x80, 0x04, 0x00, 0x08, 0x90, 0x05, /* 0x30  F */
    0x64, 0x08, 0x80, 0x05, 0x00, 0x08, 0x90, 0x07, /* 0x38  G */
    0x64, 0x08, 0x80, 0x07, 0x00, 0x08, 0x90, 0x09, /* 0x40  A */
    0x64, 0x08, 0x80, 0x09, 0x00, 0x08, 0x90, 0x0b, /* 0x48  B */
    0x64, 0x08, 0x80, 0x0b, 0x00, 0x08, 0x90, 0x0c, /* 0x50  C */
    0x64, 0x08, 0x80, 0x0c, 0x00, 0x08, 0x90, 0x0e, /* 0x58  D */
    0x64, 0x08, 0x80, 0x0e, 0x00, 0x08, 0x90, 0x10, /* 0x60  E */
    0x64, 0x08, 0x80, 0x10, 0x00, 0x08, 0x90, 0x11, /* 0x68  F */
    0x64, 0x08, 0x80, 0x11, 0x00, 0x08, 0x90, 0x13, /* 0x70  G */
    0x64, 0x08, 0x80, 0x13, 0x00, 0x08, 0x90, 0x15, /* 0x78  A */
    0x64, 0x08, 0x80, 0x15, 0x00, 0x08, 0x90, 0x17, /* 0x80  B */
    0x64, 0x08, 0x80, 0x17, 0x00, 0x08, 0x90, 0x18, /* 0x88  C */
    0x64, 0x08, 0x80, 0x18, 0x00, 0x08, 0x90, 0x1a, /* 0x90  D */
    0x64, 0x08, 0x80, 0x1a, 0x00, 0x08, 0x90, 0x1c, /* 0x98  E */
    0x64, 0x08, 0x80, 0x1c, 0x00, 0x08, 0x90, 0x1d, /* 0xA0  F */
    0x64, 0x08, 0x80, 0x1d, 0x00, 0x08, 0x90, 0x1f, /* 0xA8  G */
    0x64, 0x08, 0x80, 0x1f, 0x00, 0x08, 0x90, 0x21, /* 0xB0  A */
    0x64, 0x08, 0x80, 0x21, 0x00, 0x08, 0x90, 0x23, /* 0xB8  B */
    0x64, 0x08, 0x80, 0x23, 0x00, 0x08, 0x90, 0x24, /* 0xC0  C */
    0x64, 0x08, 0x80, 0x24, 0x00, 0x08, 0x90, 0x26, /* 0xC8  D */
    0x64, 0x08, 0x80, 0x26, 0x00, 0x08, 0x90, 0x28, /* 0xD0  E */
    0x64, 0x08, 0x80, 0x28, 0x00, 0x08, 0x90, 0x29, /* 0xD8  F */
    0x64, 0x08, 0x80, 0x29, 0x00, 0x08, 0x90, 0x2b, /* 0xE0  G */
    0x64, 0x08, 0x80, 0x2b, 0x00, 0x08, 0x90, 0x2d, /* 0xE8  A */
    0x64, 0x08, 0x80, 0x2d, 0x00, 0x08, 0x90, 0x2f, /* 0xF0  B */
    0x64, 0x08, 0x80, 0x2f, 0x00, 0x08, 0x90, 0x30, /* 0xF8  C */
    0x64, 0x08, 0x80, 0x30, 0x00, 0x08, 0x90, 0x32, /* 0x100 D */
    0x64, 0x08, 0x80, 0x32, 0x00, 0x08, 0x90, 0x34, /* 0x108 E */
    0x64, 0x08, 0x80, 0x34, 0x00, 0x08, 0x90, 0x35, /* 0x110 F */
    0x64, 0x08, 0x80, 0x35, 0x00, 0x08, 0x90, 0x37, /* 0x118 G */
    0x64, 0x08, 0x80, 0x37, 0x00, 0x08, 0x90, 0x39, /* 0x120 A */
    0x64, 0x08, 0x80, 0x39, 0x00, 0x08, 0x90, 0x3b, /* 0X128 B */
    0x64, 0x08, 0x80, 0x3b, 0x00, 0x08, 0x90, 0x3c, /* 0x130 C */
    0x64, 0x08, 0x80, 0x3c, 0x00, 0x08, 0x90, 0x3e, /* 0x138 D */
    0x64, 0x08, 0x80, 0x3e, 0x00, 0x08, 0x90, 0x40, /* 0X140 E */
    0x64, 0x08, 0x80, 0x40, 0x00, 0x08, 0x90, 0x41, /* 0x148 F */
    0x64, 0x08, 0x80, 0x41, 0x00, 0x08, 0x90, 0x43, /* 0x150 G */
    0x64, 0x08, 0x80, 0x43, 0x00, 0x08, 0x90, 0x45, /* 0x158 A */
    0x64, 0x08, 0x80, 0x45, 0x00, 0x08, 0x90, 0x47, /* 0x160 B */
    0x64, 0x08, 0x80, 0x47, 0x00, 0x08, 0x90, 0x48, /* 0x168 C */
    0x64, 0x08, 0x80, 0x48, 0x00, 0x08, 0x90, 0x4a, /* 0x170 D */
    0x64, 0x08, 0x80, 0x4a, 0x00, 0x08, 0x90, 0x4c, /* 0x178 E */
    0x64, 0x08, 0x80, 0x4c, 0x00, 0x08, 0x90, 0x4d, /* 0x180 F */
    0x64, 0x08, 0x80, 0x4d, 0x00, 0x08, 0x90, 0x4f, /* 0x188 G */
    0x64, 0x08, 0x80, 0x4f, 0x00, 0x08, 0x90, 0x51, /* 0x190 A */
    0x64, 0x08, 0x80, 0x51, 0x00, 0x08, 0x90, 0x53, /* 0x198 B */
    0x64, 0x08, 0x80, 0x53, 0x00, 0x08, 0x90, 0x54, /* 0x1A0 C */
    0x64, 0x08, 0x80, 0x54, 0x00, 0x08, 0x90, 0x56, /* 0x1A8 D */
    0x64, 0x08, 0x80, 0x56, 0x00, 0x08, 0x90, 0x58, /* 0x1B0 E */
    0x64, 0x08, 0x80, 0x58, 0x00, 0x08, 0x90, 0x59, /* 0x1B8 F */
    0x64, 0x08, 0x80, 0x59, 0x00, 0x08, 0x90, 0x5b, /* 0x1C0 G */
    0x64, 0x08, 0x80, 0x5b, 0x00, 0x08, 0x90, 0x5d, /* 0x1C8 A */
    0x64, 0x08, 0x80, 0x5d, 0x00, 0x08, 0x90, 0x5f, /* 0x1D0 B */
    0x64, 0x08, 0x80, 0x5f, 0x00, 0x08, 0x90, 0x60, /* 0x1D8 C */
    0x64, 0x08, 0x80, 0x60, 0x00, 0x08, 0x90, 0x62, /* 0x1E0 D */
    0x64, 0x08, 0x80, 0x62, 0x00, 0x08, 0x90, 0x64, /* 0x1E8 E */
    0x64, 0x08, 0x80, 0x64, 0x00, 0x08, 0x90, 0x65, /* 0x1F0 F */
    0x64, 0x08, 0x80, 0x65, 0x00, 0x08, 0x90, 0x67, /* 0x1F8 G */
    0x64, 0x08, 0x80, 0x67, 0x00, 0x08, 0x90, 0x69, /* 0x200 A */
    0x64, 0x08, 0x80, 0x69, 0x00, 0x08, 0x90, 0x6b, /* 0x208 B */
    0x64, 0x08, 0x80, 0x6b, 0x00, 0x08, 0x90, 0x6c, /* 0x210 C */
    0x64, 0x08, 0x80, 0x6c, 0x00, 0x08, 0x90, 0x6e, /* 0x218 D */
    0x64, 0x08, 0x80, 0x6e, 0x00, 0x08, 0x90, 0x70, /* 0x220 E */
    0x64, 0x08, 0x80, 0x70, 0x00, 0x08, 0x90, 0x71, /* 0x228 F */
    0x64, 0x08, 0x80, 0x71, 0x00, 0x08, 0x90, 0x73, /* 0x230 G */
    0x64, 0x08, 0x80, 0x73, 0x00, 0x08, 0x90, 0x75, /* 0x238 A */
    0x64, 0x08, 0x80, 0x75, 0x00, 0x08, 0x90, 0x77, /* 0x240 B */
    0x64, 0x08, 0x80, 0x77, 0x00, 0x08, 0x90, 0x78, /* 0x248 C */
    0x64, 0x08, 0x80, 0x78, 0x00, 0x08, 0x90, 0x7a, /* 0x250 D */
    0x64, 0x08, 0x80, 0x7a, 0x00, 0x08, 0x90, 0x7c, /* 0x258 E */
    0x64, 0x08, 0x80, 0x7c, 0x00, 0x08, 0x90, 0x7d, /* 0x260 F */
    0x64, 0x08, 0x80, 0x7d, 0x00, 0x08, 0x90, 0x7f, /* 0x268 G */
    0x64, 0x08, 0x80, 0x7f, 0x00, 0x08, 0xff, 0x2f, /* 0x270   */
    0x00                                            /* 0x278   */
};

int main(){
    write(1, midi_test_c_scale, sizeof(midi_test_c_scale));
}